<?xml version="1.0" standalone="no"?>
<svg xmlns:xlink="http://www.w3.org/1999/xlink" id="wave" style="transform:rotate(180deg); transition: 0.3s" viewBox="0 0 1440 180" version="1.1" xmlns="http://www.w3.org/2000/svg"><defs><linearGradient id="sw-gradient-0" x1="0" x2="0" y1="1" y2="0"><stop stop-color="rgba(71, 85, 105, 1)" offset="0%"/><stop stop-color="rgba(71, 85, 105, 1)" offset="100%"/></linearGradient></defs><path style="transform:translate(0, 0px); opacity:1" fill="url(#sw-gradient-0)" d="M0,90L48,96C96,102,192,114,288,111C384,108,480,90,576,75C672,60,768,48,864,39C960,30,1056,24,1152,42C1248,60,1344,102,1440,117C1536,132,1632,120,1728,120C1824,120,1920,132,2016,117C2112,102,2208,60,2304,42C2400,24,2496,30,2592,54C2688,78,2784,120,2880,126C2976,132,3072,102,3168,87C3264,72,3360,72,3456,63C3552,54,3648,36,3744,45C3840,54,3936,90,4032,90C4128,90,4224,54,4320,42C4416,30,4512,42,4608,63C4704,84,4800,114,4896,111C4992,108,5088,72,5184,48C5280,24,5376,12,5472,18C5568,24,5664,48,5760,69C5856,90,5952,108,6048,99C6144,90,6240,54,6336,60C6432,66,6528,114,6624,138C6720,162,6816,162,6864,162L6912,162L6912,180L6864,180C6816,180,6720,180,6624,180C6528,180,6432,180,6336,180C6240,180,6144,180,6048,180C5952,180,5856,180,5760,180C5664,180,5568,180,5472,180C5376,180,5280,180,5184,180C5088,180,4992,180,4896,180C4800,180,4704,180,4608,180C4512,180,4416,180,4320,180C4224,180,4128,180,4032,180C3936,180,3840,180,3744,180C3648,180,3552,180,3456,180C3360,180,3264,180,3168,180C3072,180,2976,180,2880,180C2784,180,2688,180,2592,180C2496,180,2400,180,2304,180C2208,180,2112,180,2016,180C1920,180,1824,180,1728,180C1632,180,1536,180,1440,180C1344,180,1248,180,1152,180C1056,180,960,180,864,180C768,180,672,180,576,180C480,180,384,180,288,180C192,180,96,180,48,180L0,180Z"/></svg>